<svg width="272" height="376" viewBox="120 72 272 376" fill="none" xmlns="http://www.w3.org/2000/svg">
  <path d="M256 77L136 117V251C136 326 179 390 256 440C333 390 376 326 376 251V117L256 77Z" fill="#FFFFFF"/>
  <path d="M256 95L153 129V246C153 312 191 370 256 416C321 370 359 312 359 246V129L256 95Z" stroke="#0F2744" stroke-width="22" stroke-linejoin="round"/>
  <path d="M154 269C169 311 198 350 246 389" stroke="#F0B400" stroke-width="22" stroke-linecap="round"/>
  <path d="M314 407C341 383 363 352 378 313" stroke="#1F8B34" stroke-width="22" stroke-linecap="round"/>
  <path d="M267 157V341" stroke="#0F2744" stroke-width="16" stroke-linecap="round"/>
  <path d="M235 174L267 157L299 172V341" stroke="#0F2744" stroke-width="16" stroke-linejoin="round"/>
  <path d="M296 217L330 201L362 217V341" stroke="#0F2744" stroke-width="16" stroke-linejoin="round"/>
  <path d="M221 238H368" stroke="#0F2744" stroke-width="16" stroke-linecap="round"/>
  <path d="M195 238V341" stroke="#0F2744" stroke-width="16" stroke-linecap="round"/>
  <path d="M165 238H221" stroke="#0F2744" stroke-width="16" stroke-linecap="round"/>
  <circle cx="195" cy="238" r="13" fill="#FFFFFF" stroke="#0F2744" stroke-width="12"/>
  <circle cx="267" cy="238" r="13" fill="#FFFFFF" stroke="#0F2744" stroke-width="12"/>
  <path d="M195 225V199" stroke="#0F2744" stroke-width="12" stroke-linecap="round"/>
  <path d="M195 199L217 188" stroke="#0F2744" stroke-width="12" stroke-linecap="round"/>
  <path d="M292 398L326 381L356 315" stroke="#8AC400" stroke-width="18" stroke-linecap="round" stroke-linejoin="round"/>
  <path d="M239 341L256 360L273 341" stroke="#0F2744" stroke-width="12" stroke-linecap="round" stroke-linejoin="round"/>
</svg>
